<?xml version="1.0" encoding="UTF-8"?> <!-- Generator: Adobe Illustrator 24.0.2, SVG Export Plug-In . SVG Version: 6.00 Build 0) --> <svg xmlns="http://www.w3.org/2000/svg" xmlns:xlink="http://www.w3.org/1999/xlink" id="Layer_1" x="0px" y="0px" viewBox="0 0 789 141" style="enable-background:new 0 0 789 141;" xml:space="preserve"> <style type="text/css"> .st0{clip-path:url(#SVGID_2_);} .st1{fill:#FFFFFF;} .st2{fill:none;} .st3{enable-background:new ;} </style> <g> <g> <g> <defs> <rect id="SVGID_1_" y="0" width="789" height="141"></rect> </defs> <clipPath id="SVGID_2_"> <use xlink:href="#SVGID_1_" style="overflow:visible;"></use> </clipPath> <g class="st0"> <path class="st1" d="M46.8,76.7L4.3,52l9.1-16.1l14.9,8.5V12.8h18.6v63.9C46.9,76.7,46.8,76.7,46.8,76.7z"></path> <path class="st1" d="M55.7,49.3L56,0h18.6v17l27.7-15.5l9.1,16.1L55.7,49.3z"></path> <path class="st1" d="M22.5,122l-9.4-15.8l14.6-8.5L0,82.1L9.1,66l55.7,31L22.5,122z"></path> <path class="st1" d="M122,128.4h-18.6V64.5L146,89.1l-9.1,16.1L122,96.7V128.4z"></path> <path class="st1" d="M94,140.8H75.4v-17l-27.7,15.5l-9.1-16.1l55.7-31.3L94,140.8z"></path> <path class="st1" d="M140.8,75.4L85.2,44.1l42.6-24.9l9.4,15.8l-14.6,8.5l27.7,15.8L140.8,75.4z"></path> <path class="st1" d="M170.6,19.8c4.9-3,10.6-4.3,16.4-4.3c3,0,6.4,0.3,9.4,0.9c3,0.6,5.8,1.2,8.8,2.4v11.6 c-2.7-1.2-5.5-2.1-8.2-2.7c-3.3-0.9-6.7-1.2-10-1.2c-1.8,0-4,0-5.8,0.6c-0.9,0.3-1.5,0.6-2.1,1.2s-1.2,1.5-1.5,2.1 c-0.3,0.9-0.6,1.8-0.6,2.7c0,6.7,10.3,6.7,19.5,9.4c2.1,0.6,4.3,1.5,6.1,2.7s3.3,3,4.6,4.9c1.2,2.4,1.8,5.2,1.8,7.9 c0,13.7-10,18.6-22.8,18.6c-7,0-14.3-1.2-20.7-4.3V60.2c3,1.5,6.1,2.7,9.4,3.7c3.3,0.9,6.7,1.5,10,1.5c7.6,0,10.9-1.8,10.9-7 c0-6.4-10-6.4-18.6-8.8c-7-1.8-13.4-5.5-13.4-15.5c0-2.7,0.3-5.5,1.8-8.2C167.3,23.1,168.5,21.6,170.6,19.8z"></path> <path class="st1" d="M219,75.4V16.7h44.1v11h-31.6V42h24.6v10.6h-24.6v22.5L219,75.4z"></path> <path class="st1" d="M297.8,75.4V16.7h44.1v11h-31.6v12.5H338v11h-27.7v13.4h32.2v11h-44.7V75.4z"></path> <path class="st1" d="M350.7,75.4V16.7h22.5c18.6-0.3,32.5,12.5,32.2,29.2c0.3,17-13.7,29.5-32.2,29.2L350.7,75.4z M363.2,64.8 h8.5c5.5,0.3,11-1.5,15.5-4.9c1.8-1.8,3.3-3.7,4.3-6.1c0.9-2.4,1.5-4.9,1.2-7.3c0-2.4-0.3-5.2-1.2-7.3c-0.9-2.4-2.4-4.6-4.3-6.1 c-4.3-3.7-9.7-5.5-15.5-5.2h-8.5V64.8z"></path> <path class="st1" d="M414.6,16.7h12.5v33.8c0,9.4,4.9,14.3,12.8,14.3s12.8-4.9,12.8-14.3V16.7h12.5v34.1c0.3,3.3-0.3,7-1.5,10.3 c-1.2,3.3-3,6.4-5.5,8.8c-5.2,4.6-11.6,7-18.3,7s-13.4-2.4-18.3-7c-2.4-2.4-4.3-5.5-5.5-8.8s-1.8-6.7-1.5-10.3V16.7z"></path> <path class="st1" d="M485.2,24.3c6.4-5.8,14.9-8.8,23.4-8.5c6.1,0,11.9,1.2,17.3,3.7v12.2c-5.2-2.7-10.6-4-16.4-3.7 c-5.2-0.3-10.3,1.5-14.3,5.2c-1.8,1.8-3.3,4-4.3,6.4c-0.9,2.4-1.2,4.9-1.2,7.6c0,2.4,0.3,5.2,1.5,7.3c0.9,2.4,2.4,4.6,4.3,6.1 c3.6,3.3,8.2,4.9,13.1,4.9c6.4,0,12.5-1.8,17.6-5.5v12.8c-6.1,3-12.5,4.6-19.5,4.6c-5.8,0-11.3-1.2-16.1-4 c-4.6-2.4-8.5-6.4-11-11c-2.7-4.9-4-10-4-15.5c-0.3-4.3,0.6-8.2,2.1-12.2C479.7,30.7,482.1,27.4,485.2,24.3z"></path> <path class="st1" d="M531.1,75.4L560,16.7h3.3l29.8,58.7h-13.7l-4.9-10.3h-25.9l-4.9,10.3H531.1z M553.3,55.4H570l-8.5-18.3 L553.3,55.4z"></path> <path class="st1" d="M584.6,27.7v-11h49.3v11h-18.6v47.8h-12.2V27.7H584.6z"></path> <path class="st1" d="M640.9,75.4V16.7h12.5v58.7H640.9z"></path> <path class="st1" d="M672.9,24.3c3.7-3.7,8.2-6.7,13.1-8.2c4.9-1.5,10.3-1.8,15.5-0.9c5.2,0.9,10,3.3,14,6.7 c4,3.3,7,7.6,9.1,12.5c1.5,3.7,2.1,7.9,2.1,11.9c0.3,4.3-0.6,8.2-2.1,12.2c-2.1,5.8-6.4,10.6-11.6,14 c-5.2,3.3-11.3,4.9-17.6,4.6c-8.2,0.3-16.4-2.7-22.5-8.5c-2.7-3-5.2-6.4-6.7-10.3c-1.5-4-2.1-7.9-2.1-12.2c0-4,0.6-8.2,2.1-11.9 C667.7,30.7,670.1,27.1,672.9,24.3z M677.4,46.2c0,2.4,0.3,5.2,1.2,7.3c0.9,2.4,2.1,4.6,4,6.4c1.8,1.8,3.7,3,6.1,4 c2.1,0.9,4.6,1.2,7,1.2s4.9-0.3,7-1.2c2.1-0.9,4.3-2.1,6.1-4s3-4,4-6.4c0.9-2.4,1.2-4.9,1.2-7.3c0-2.4-0.3-5.2-1.2-7.6 c-0.9-2.4-2.1-4.6-4-6.4c-3.3-3.3-8.2-5.2-12.8-5.2c-4.9,0-9.4,1.8-12.8,5.2c-1.8,1.8-3,4-4,6.4 C677.7,41.4,677.4,43.8,677.4,46.2z"></path> <path class="st1" d="M737.3,75.4V16.7h4l35.9,35v-35h11.9v58.7h-4.3l-35.6-35v35H737.3z"></path> <rect x="162.2" y="98" class="st2" width="632.4" height="35"></rect> <g class="st3"> <path class="st1" d="M164.5,120.4v-16.5c2.3-0.2,5.1-0.2,7.6-0.2c3.5,0,6.5,0.7,6.5,4c0,1.9-0.9,3.2-2.7,4.1 c2.3,0.7,3.4,2.1,3.4,4.1c0,2.6-1.9,4.7-7.6,4.7C170.4,120.6,167,120.6,164.5,120.4z M171.9,110.7c2.2,0,3.2-1,3.2-2.3 s-0.8-2.1-3.5-2.1h-3.9v4.5L171.9,110.7L171.9,110.7z M172.4,117.8c2.3,0,3.4-0.9,3.4-2.3s-1-2.2-3.5-2.2h-4.5v4.6L172.4,117.8 L172.4,117.8z"></path> <path class="st1" d="M195.1,106.9c-1.1-0.4-2.6-0.7-4-0.7c-3.7,0-5.7,2-5.7,5.8s2.3,5.9,5.6,5.9c1.5,0,3.1-0.3,4.3-0.8v2.9 c-1.6,0.7-3.4,0.9-4.7,0.9c-5,0-8.7-3.2-8.7-8.7c0-5.4,3.4-8.9,8.9-8.9c1.2,0,3,0.2,4.4,0.7v2.9H195.1z"></path> <path class="st1" d="M212.7,119.8c-1.5,0.7-3.9,1.1-5.8,1.1c-6.4,0-9.2-3.9-9.2-8.8c0-5.6,4.1-8.7,8.5-8.7 c5.6,0,7.9,3.6,7.9,7.9c0,0.5-0.1,1.7-0.1,2.4h-12.7c0.5,3.4,3.5,4.4,6.3,4.4c1.6,0,3.6-0.3,5.2-1L212.7,119.8L212.7,119.8z M210.7,111c0-3.2-1.9-4.9-4.5-4.9c-3,0-4.9,1.8-5,4.9H210.7z"></path> <path class="st1" d="M226.4,112.2c0-5,3.3-8.9,8.7-8.9c5.9,0.1,8.7,4.1,8.7,8.7c0,5-3.3,8.9-8.7,8.9 C229.3,120.8,226.4,116.8,226.4,112.2z M240.4,112.3c0-3.1-1.5-6.1-5.2-6.1c-4,0-5.2,3.1-5.2,5.8c0,3.1,1.5,6.1,5.2,6.1 C239.1,118.1,240.4,115,240.4,112.3z"></path> <path class="st1" d="M250,108.7c2.1-2.4,4.9-3,7.2-3c4,0,6.9,2.8,6.9,7c0,4.5-3.3,8.2-8.2,8.2c-6.1,0-9-3.9-9-9.4 c0-8.5,4.2-11.7,15.6-13.7v3.2C257.5,102.1,251,102.5,250,108.7z M250.1,112c0.2,3.2,1.7,5.9,5.5,5.9c3.5,0,5.2-2.3,5.2-5.1 c0-3-1.8-4.2-4.6-4.2C254.1,108.7,251.5,109.8,250.1,112z"></path> <path class="st1" d="M289,120.3l-0.4-2.6c-1.7,2.2-3.9,2.9-6.4,2.9c-2.9,0-6-1.7-6-5.3c0-4.1,3.2-5.5,6.8-5.5 c1.3,0,3.3,0.4,4.9,1v-1.5c0-2.7-2.6-3.1-4.7-3.1c-1.8,0-3.6,0.3-5.2,1.1v-3c1.7-0.6,3.7-1,5.6-1c4.1,0,7.7,1.2,7.7,6.6v10.4 H289z M287.9,113.6c-1.3-0.8-2.9-1.3-4.5-1.3c-2.2,0-3.7,0.7-3.7,2.6c0,1.8,1,3.1,3.5,3.1c1.8,0,3.6-1.2,4.7-3.1V113.6z"></path> <path class="st1" d="M310.7,120.3h-3.4v-6.8h-8.2v6.8h-3.4v-16.4h3.4v6.8h8.2v-6.8h3.4V120.3z"></path> <path class="st1" d="M327,120.3l-0.4-2.6c-1.7,2.2-3.9,2.9-6.4,2.9c-2.9,0-6-1.7-6-5.3c0-4.1,3.2-5.5,6.8-5.5 c1.3,0,3.3,0.4,4.9,1v-1.5c0-2.7-2.6-3.1-4.7-3.1c-1.8,0-3.6,0.3-5.2,1.1v-3c1.7-0.6,3.7-1,5.6-1c4.1,0,7.7,1.2,7.7,6.6v10.4 H327z M325.9,113.6c-1.3-0.8-2.9-1.3-4.5-1.3c-2.2,0-3.7,0.7-3.7,2.6c0,1.8,1,3.1,3.5,3.1c1.8,0,3.6-1.2,4.7-3.1V113.6z"></path> <path class="st1" d="M348.7,103.9v16.4h-3.3v-13.6h-6.3c0,11.8-1.7,13.8-5.5,13.8c-0.4,0-1.1,0-1.7-0.1l0.3-2.8 c0.3,0.1,0.5,0.1,0.7,0.1c2.6,0,3.1-2.8,3.3-13.8H348.7z"></path> <path class="st1" d="M353.1,103.9h3.4v10.5l10.6-10.5h1.2v16.4H365v-10.5l-10.6,10.5h-1.2L353.1,103.9L353.1,103.9z"></path> <path class="st1" d="M385.5,106.7h-5.3v13.6h-3.4v-13.6h-5.3v-2.8h14.1v2.8H385.5z"></path> <path class="st1" d="M388.5,103.9h3.4v10.5l10.6-10.5h1.2v16.4h-3.4v-10.5l-10.6,10.5h-1.2V103.9z"></path> <path class="st1" d="M408.2,103.9h3.4v6.8h2.6l5-6.8h4.1l-6.1,7.9l6.7,8.5h-4.3l-5.2-6.8h-2.8v6.8h-3.4L408.2,103.9 L408.2,103.9z"></path> <path class="st1" d="M440.3,119.8c-1.5,0.7-3.9,1.1-5.8,1.1c-6.4,0-9.2-3.9-9.2-8.8c0-5.6,4.1-8.7,8.5-8.7 c5.6,0,7.9,3.6,7.9,7.9c0,0.5-0.1,1.7-0.1,2.4h-12.7c0.5,3.4,3.5,4.4,6.3,4.4c1.6,0,3.6-0.3,5.2-1L440.3,119.8L440.3,119.8z M438.3,111c0-3.2-1.9-4.9-4.5-4.9c-3,0-4.9,1.8-5,4.9H438.3z"></path> <path class="st1" d="M443.9,124.9l2.4-8.6h3.7l-3.8,8.6H443.9z"></path> <path class="st1" d="M474,103.3c6.1,0.5,9.6,4,9.6,8.7s-3.5,8.6-9.6,8.8v5.7h-3.2v-5.7c-6.1-0.2-9.6-4.1-9.6-8.8 c0-4.8,3.5-8.3,9.6-8.7V98h3.2V103.3z M470.8,106.2c-4.1,0.2-6.3,2.7-6.3,5.9c0,3.3,2.2,5.8,6.3,6V106.2z M474,118.1 c4.1-0.2,6.3-2.7,6.3-6c0-3.2-2.1-5.7-6.3-5.9V118.1z"></path> <path class="st1" d="M487,103.9h3.4v10.5l10.6-10.5h1.2v16.4h-3.4v-10.5l-10.6,10.5H487V103.9z"></path> <path class="st1" d="M521.7,120.3h-3.4v-6.8h-8.2v6.8h-3.4v-16.4h3.4v6.8h8.2v-6.8h3.4V120.3z"></path> <path class="st1" d="M537.9,120.3l-0.4-2.6c-1.7,2.2-3.9,2.9-6.4,2.9c-2.9,0-6-1.7-6-5.3c0-4.1,3.2-5.5,6.8-5.5 c1.3,0,3.3,0.4,4.9,1v-1.5c0-2.7-2.6-3.1-4.7-3.1c-1.8,0-3.6,0.3-5.2,1.1v-3c1.7-0.6,3.7-1,5.6-1c4.1,0,7.7,1.2,7.7,6.6v10.4 H537.9z M536.8,113.6c-1.3-0.8-2.9-1.3-4.5-1.3c-2.2,0-3.7,0.7-3.7,2.6c0,1.8,1,3.1,3.5,3.1c1.8,0,3.6-1.2,4.7-3.1V113.6z"></path> <path class="st1" d="M559.6,120.3h-3.4v-6.8H548v6.8h-3.4v-16.4h3.4v6.8h8.2v-6.8h3.4L559.6,120.3L559.6,120.3z"></path> <path class="st1" d="M576.3,106.9c-1.1-0.4-2.6-0.7-4-0.7c-3.7,0-5.7,2-5.7,5.8s2.3,5.9,5.6,5.9c1.5,0,3.1-0.3,4.3-0.8v2.9 c-1.6,0.7-3.4,0.9-4.7,0.9c-5,0-8.7-3.2-8.7-8.7c0-5.4,3.4-8.9,8.9-8.9c1.2,0,3,0.2,4.4,0.7L576.3,106.9L576.3,106.9z"></path> <path class="st1" d="M591.4,120.3l-0.4-2.6c-1.7,2.2-3.9,2.9-6.4,2.9c-2.9,0-6-1.7-6-5.3c0-4.1,3.2-5.5,6.8-5.5 c1.3,0,3.3,0.4,4.9,1v-1.5c0-2.7-2.6-3.1-4.7-3.1c-1.8,0-3.6,0.3-5.2,1.1v-3c1.7-0.6,3.7-1,5.6-1c4.1,0,7.7,1.2,7.7,6.6v10.4 H591.4z M590.3,113.6c-1.3-0.8-2.9-1.3-4.5-1.3c-2.2,0-3.7,0.7-3.7,2.6c0,1.8,1,3.1,3.5,3.1c1.8,0,3.6-1.2,4.7-3.1V113.6z"></path> <path class="st1" d="M612.3,120.3h-3.7l-4.2-5.9l-4,5.9h-4l6-8.2l-6.2-8.2h3.9l4.2,6.1l4.2-6.1h3.7l-6,8.1L612.3,120.3z"></path> <path class="st1" d="M624.4,103.9h3.4v10.5l10.6-10.5h1.2v16.4h-3.4v-10.5l-10.6,10.5h-1.2V103.9z"></path> <path class="st1" d="M655.9,108.7c2.1-2.4,4.9-3,7.2-3c4,0,6.9,2.8,6.9,7c0,4.5-3.3,8.2-8.2,8.2c-6.1,0-9-3.9-9-9.4 c0-8.5,4.2-11.7,15.6-13.7v3.2C663.4,102.1,656.9,102.5,655.9,108.7z M656,112c0.2,3.2,1.7,5.9,5.5,5.9c3.5,0,5.2-2.3,5.2-5.1 c0-3-1.8-4.2-4.6-4.2C660.1,108.7,657.5,109.8,656,112z"></path> <path class="st1" d="M673.6,103.9h3.4v10.5l10.6-10.5h1.2v16.4h-3.4v-10.5l-10.6,10.5h-1.2V103.9z"></path> <path class="st1" d="M693,104.1c1.5-0.5,4.7-0.7,6.3-0.7c3.7,0,6.2,1.4,6.2,4.3c0,1.8-0.9,3.3-2.9,4.2c2.2,0.5,3.3,2.2,3.3,4.2 c0,3.6-3.3,4.9-6.8,4.9c-1.8,0-4.8-0.2-6.3-0.8v-3c1.5,0.6,3.5,0.9,5.2,0.9c2.2,0,4.5-0.5,4.5-2.4c0-1.4-1-2.3-3.6-2.3h-4.1 V111h4.1c2.3,0,3.1-1,3.1-2.3c0-1.9-2-2.3-4.1-2.3c-1.6,0-3.6,0.4-5,0.7L693,104.1L693,104.1z"></path> <path class="st1" d="M724.5,120.3H721v-6.8h-8.2v6.8h-3.4v-16.4h3.4v6.8h8.2v-6.8h3.4L724.5,120.3L724.5,120.3z"></path> <path class="st1" d="M743,119.8c-1.5,0.7-3.9,1.1-5.8,1.1c-6.4,0-9.2-3.9-9.2-8.8c0-5.6,4.1-8.7,8.5-8.7c5.6,0,7.9,3.6,7.9,7.9 c0,0.5-0.1,1.7-0.1,2.4h-12.7c0.5,3.4,3.5,4.4,6.3,4.4c1.6,0,3.6-0.3,5.2-1v2.7H743z M740.9,111c0-3.2-1.9-4.9-4.5-4.9 c-3,0-4.9,1.8-5,4.9H740.9z"></path> <path class="st1" d="M760,106.9c-1.1-0.4-2.6-0.7-4-0.7c-3.7,0-5.7,2-5.7,5.8s2.3,5.9,5.6,5.9c1.5,0,3.1-0.3,4.3-0.8v2.9 c-1.6,0.7-3.4,0.9-4.7,0.9c-5,0-8.7-3.2-8.7-8.7c0-5.4,3.4-8.9,8.9-8.9c1.2,0,3,0.2,4.4,0.7L760,106.9L760,106.9z"></path> <path class="st1" d="M777.7,119.8c-1.5,0.7-3.9,1.1-5.8,1.1c-6.4,0-9.2-3.9-9.2-8.8c0-5.6,4.1-8.7,8.5-8.7 c5.6,0,7.9,3.6,7.9,7.9c0,0.5-0.1,1.7-0.1,2.4h-12.7c0.5,3.4,3.5,4.4,6.3,4.4c1.6,0,3.6-0.3,5.2-1v2.7H777.7z M775.6,111 c0-3.2-1.9-4.9-4.5-4.9c-3,0-4.9,1.8-5,4.9H775.6z"></path> </g> </g> </g> </g> </g> </svg> 