<?xml version="1.0" encoding="UTF-8"?> <!-- Generator: Adobe Illustrator 24.0.2, SVG Export Plug-In . SVG Version: 6.00 Build 0) --> <svg xmlns="http://www.w3.org/2000/svg" xmlns:xlink="http://www.w3.org/1999/xlink" id="Layer_1" x="0px" y="0px" viewBox="0 0 91 40" style="enable-background:new 0 0 91 40;" xml:space="preserve"> <style type="text/css"> .st0{clip-path:url(#SVGID_2_);} .st1{fill:#DCDCDC;} </style> <g> <defs> <rect id="SVGID_1_" y="0" width="91" height="40"></rect> </defs> <clipPath id="SVGID_2_"> <use xlink:href="#SVGID_1_" style="overflow:visible;"></use> </clipPath> <g class="st0"> <path class="st1" d="M12.4,0c-3.9,0-7,2.8-7,6.2c0,3.4,3.1,6.2,7,6.2c3.9,0,7-2.8,7-6.2C19.4,2.8,16.2,0,12.4,0z"></path> <path class="st1" d="M54.7,18.1c0.6-0.6,1.1-1.3,1.4-2.1c0.3-0.8,0.5-1.6,0.5-2.5c0-1-0.2-2-0.7-3c-0.5-0.9-1.1-1.7-2-2.3 c-1.8-1.4-4.3-2.1-7.6-2.1H26.7V36h18.2c0,0,4.1,0,4.1,0l6.1-14.4c-1.2-0.7-2.6-1.2-4-1.5C52.4,19.8,53.7,19.1,54.7,18.1z M37.3,12.1H42c1.6,0,2.7,0.2,3.4,0.7c0.3,0.2,0.6,0.6,0.7,0.9c0.2,0.4,0.2,0.8,0.2,1.1c0,0.4-0.1,0.8-0.2,1.2 c-0.2,0.4-0.4,0.7-0.7,1c-0.6,0.5-1.8,0.8-3.4,0.8h-4.6V12.1z M46.5,28.7c-0.7,0.6-2,0.8-3.8,0.8h-5.4v-6h5.3 c1.8,0,3.1,0.3,3.9,0.8c0.3,0.2,0.6,0.6,0.8,0.9c0.2,0.4,0.3,0.8,0.3,1.2c0,0.4-0.1,0.9-0.3,1.3C47.2,28.1,46.9,28.5,46.5,28.7z"></path> <path class="st1" d="M74.2,6.1H62.7L50,36h10.7l1.7-4.9h11.9L76,36h11L74.2,6.1z M64.6,24.5l3.7-10.7l3.7,10.7H64.6z"></path> <path class="st1" d="M21.4,6.2c0,4.1-3.5,7.5-8,7.9V36h11.2V6.2H21.4z"></path> <path class="st1" d="M3.2,6.2H0V36h11.2V14.1C6.7,13.6,3.2,10.3,3.2,6.2z"></path> <path class="st1" d="M82.9,5.7c0.5,0,1,0.1,1.5,0.3c0.5,0.2,0.9,0.5,1.3,0.8c0.4,0.4,0.7,0.8,0.9,1.3c0.2,0.5,0.3,1,0.3,1.5 c0,0.5-0.1,1-0.3,1.5c-0.2,0.5-0.5,0.9-0.9,1.3c-0.4,0.4-0.8,0.6-1.3,0.8c-0.5,0.2-1,0.3-1.5,0.3c-1.1,0-2.1-0.4-2.8-1.1 c-0.8-0.7-1.2-1.7-1.2-2.8c0-1,0.5-2,1.2-2.7C80.8,6.1,81.8,5.7,82.9,5.7L82.9,5.7z M82.8,6.7c-0.4,0-0.7,0.1-1.1,0.2 c-0.3,0.1-0.6,0.4-0.9,0.6s-0.5,0.6-0.6,0.9c-0.1,0.3-0.2,0.7-0.2,1.1c0,0.4,0,0.7,0.2,1.1c0.1,0.3,0.3,0.7,0.6,0.9 c0.3,0.3,0.6,0.5,0.9,0.6c0.3,0.1,0.7,0.2,1.1,0.2c0.4,0,0.7-0.1,1.1-0.2c0.3-0.1,0.6-0.4,0.9-0.6c0.3-0.3,0.5-0.6,0.6-0.9 c0.1-0.3,0.2-0.7,0.2-1.1c0-0.4-0.1-0.7-0.2-1.1c-0.1-0.3-0.3-0.6-0.6-0.9c-0.3-0.3-0.6-0.5-0.9-0.6C83.6,6.8,83.2,6.7,82.8,6.7 L82.8,6.7z M82.4,11.3h-1.2V7.9c0.5-0.1,1.1-0.1,1.6-0.1c0.5-0.1,1,0,1.5,0.3c0.1,0.1,0.2,0.2,0.3,0.3c0.1,0.1,0.1,0.3,0.1,0.4 c0,0.3-0.3,0.7-0.8,0.8v0c0.2,0.1,0.4,0.2,0.5,0.3c0.1,0.2,0.2,0.4,0.2,0.6c0.1,0.3,0.1,0.5,0.3,0.8h-1.3 c-0.1-0.2-0.2-0.4-0.3-0.7c0-0.1,0-0.1,0-0.2c0-0.1-0.1-0.1-0.1-0.2c0,0-0.1-0.1-0.2-0.1c-0.1,0-0.1,0-0.2,0h-0.3V11.3z M82.5,9.3 h0.3c0.4,0,0.6-0.2,0.6-0.4c0-0.3-0.2-0.4-0.5-0.4c-0.1,0-0.2,0-0.3,0V9.3z"></path> </g> </g> </svg> 