<?xml version="1.0" encoding="UTF-8"?> <svg xmlns="http://www.w3.org/2000/svg" width="348" height="211" viewBox="0 0 348 211" fill="none"> <path d="M91.7721 152.785L158.495 71.5507L94.8282 51.0047L84.9715 66.8955L125.513 79.9786L75.9968 140.128L91.7721 152.785ZM173.552 178.861C200.104 187.43 221.911 171.14 230.295 145.159C238.679 119.178 230.555 93.0714 204.003 84.5029C177.451 75.9343 155.644 92.2244 147.26 118.205C138.876 144.186 147.001 170.293 173.552 178.861ZM179.311 161.017C164.322 156.18 162.422 141.066 167.673 124.793C172.925 108.519 183.256 97.5096 198.244 102.347C213.233 107.184 215.133 122.298 209.882 138.571C204.63 154.845 194.3 165.854 179.311 161.017Z" fill="#E71D36"></path> <path d="M65.4397 100.528L71.2903 82.3985L27.1803 68.1636L21.3297 86.293L65.4397 100.528Z" fill="#E71D36"></path> <path d="M309.302 128.054C313.68 129.466 316.31 133.362 314.683 138.406C313.086 143.355 308.674 144.979 304.296 143.566C300.014 142.184 297.383 138.288 298.98 133.339C300.608 128.295 305.02 126.672 309.302 128.054ZM261.071 140.755L325.811 88.6179L318.008 86.0996L253.457 138.298L261.071 140.755ZM301.041 153.654C311.033 156.878 321.647 152.317 325.056 141.754C328.496 131.095 322.55 121.191 312.558 117.966C302.66 114.772 292.047 119.333 288.607 129.991C285.198 140.555 291.143 150.46 301.041 153.654ZM271.042 85.7593C275.42 87.1721 278.051 91.0683 276.423 96.1121C274.826 101.061 270.414 102.684 266.036 101.272C261.754 99.8896 259.123 95.9934 260.72 91.0447C262.348 86.0008 266.76 84.3773 271.042 85.7593ZM262.781 111.359C272.774 114.584 283.387 110.023 286.796 99.4597C290.236 88.801 284.29 78.8963 274.298 75.6716C264.4 72.4776 253.787 77.0384 250.347 87.6971C246.938 98.2607 252.884 108.165 262.781 111.359Z" fill="#E71D36"></path> </svg> 