<?xml version="1.0" encoding="UTF-8"?> <!-- Generator: Adobe Illustrator 24.0.2, SVG Export Plug-In . SVG Version: 6.00 Build 0) --> <svg xmlns="http://www.w3.org/2000/svg" xmlns:xlink="http://www.w3.org/1999/xlink" id="Layer_1" x="0px" y="0px" viewBox="0 0 789.2 140.8" style="enable-background:new 0 0 789.2 140.8;" xml:space="preserve"> <style type="text/css"> .st0{clip-path:url(#SVGID_2_);} .st1{fill:#548BBF;} .st2{fill:#373737;} .st3{enable-background:new ;} </style> <title>Logo_color_new</title> <g> <defs> <rect id="SVGID_1_" x="0.1" y="-0.1" width="789" height="141"></rect> </defs> <clipPath id="SVGID_2_"> <use xlink:href="#SVGID_1_" style="overflow:visible;"></use> </clipPath> <g class="st0"> <g> <path class="st1" d="M46.9,76.6L4.4,51.9l9.1-16.1l14.9,8.5V12.7h18.5V76.6z"></path> <path class="st1" d="M55.8,49.2l0.3-49.3h18.5v17l27.7-15.5l9.1,16.1L55.8,49.2z"></path> <path class="st1" d="M22.6,121.9l-9.4-15.8l14.6-8.5L0.1,82l9.1-16.1l55.7,31L22.6,121.9z"></path> <path class="st1" d="M122.1,128.3h-18.6V64.4L146.1,89l-9.1,16.1l-14.9-8.5V128.3z"></path> <path class="st1" d="M94.1,140.7H75.5v-17l-27.7,15.5l-9.1-16.1l55.7-31.3L94.1,140.7z"></path> <path class="st1" d="M140.9,75.3L85.3,44l42.6-24.9l9.4,15.8l-14.6,8.5l27.7,15.8L140.9,75.3z"></path> <path class="st2" d="M170.8,19.7c5-2.9,10.7-4.4,16.4-4.3c3.2,0,6.3,0.3,9.4,0.9c3,0.5,6,1.3,8.8,2.4v11.6 c-2.6-1.2-5.4-2.1-8.2-2.7c-3.3-0.8-6.6-1.3-10-1.2c-1.9-0.1-3.9,0.1-5.8,0.6c-0.8,0.2-1.5,0.6-2.1,1.2c-0.6,0.6-1.1,1.4-1.5,2.1 c-0.3,0.9-0.5,1.8-0.6,2.7c0,6.7,10.3,6.7,19.5,9.4c2.2,0.6,4.2,1.5,6.1,2.7c1.8,1.3,3.4,3,4.6,4.9c1.2,2.5,1.8,5.2,1.8,7.9 c0,13.7-10,18.6-22.8,18.6c-7.1,0.1-14.2-1.3-20.7-4.3V60.1c3,1.5,6.2,2.8,9.4,3.7c3.3,0.9,6.6,1.5,10,1.5c7.6,0,10.9-1.8,10.9-7 c0-6.4-10-6.4-18.6-8.8c-7-1.8-13.4-5.5-13.4-15.5c-0.1-2.8,0.5-5.7,1.8-8.2C167.1,23.4,168.7,21.4,170.8,19.7z"></path> <path class="st2" d="M219.1,75.3V16.6h44.1v11h-31.6v14.3h24.6v10.6h-24.6V75L219.1,75.3z"></path> <path class="st2" d="M297.9,75.3V16.6H342v11h-31.6v12.4h27.7v11h-27.7v13.3h32.2v11L297.9,75.3z"></path> <path class="st2" d="M350.8,75.4V16.6h22.5c18.6-0.3,32.5,12.5,32.2,29.2c0.3,17-13.7,29.5-32.2,29.2L350.8,75.4z M363.3,64.7 h8.5c5.6,0.2,11.1-1.5,15.5-4.9c1.9-1.7,3.3-3.8,4.3-6.1c1-2.3,1.4-4.8,1.2-7.3c0.1-2.5-0.3-5-1.2-7.3c-0.9-2.4-2.3-4.5-4.3-6.1 c-4.3-3.7-9.9-5.5-15.5-5.2h-8.5V64.7z"></path> <path class="st2" d="M414.7,16.6h12.5v33.8c0,9.4,4.9,14.3,12.8,14.3s12.8-4.9,12.8-14.3V16.6h12.5v34.1c0.2,3.5-0.3,7-1.5,10.3 c-1.2,3.3-3,6.3-5.5,8.9c-5,4.5-11.5,7-18.3,7c-6.7,0-13.3-2.5-18.3-7c-2.4-2.5-4.3-5.5-5.5-8.8c-1.3-3.3-1.8-6.9-1.5-10.4V16.6z "></path> <path class="st2" d="M485.3,24.2c6.4-5.8,14.8-8.8,23.4-8.5c6,0,11.9,1.2,17.3,3.6v12.2c-5-2.7-10.7-4-16.4-3.6 c-5.3-0.3-10.4,1.6-14.3,5.2c-1.8,1.8-3.3,4-4.2,6.4c-0.9,2.4-1.3,5-1.2,7.6c-0.1,2.5,0.4,5,1.5,7.3c0.9,2.4,2.3,4.5,4.3,6.1 c3.6,3.2,8.3,5,13.1,4.9c6.3,0.1,12.5-1.9,17.6-5.5v12.8c-6,3-12.7,4.6-19.5,4.6c-5.6,0.1-11.2-1.3-16.1-4 c-4.7-2.5-8.5-6.3-11-10.9c-2.7-4.7-4.1-10.1-4-15.5c-0.2-4.2,0.5-8.3,2.1-12.2C479.7,30.7,482.2,27.2,485.3,24.2z"></path> <path class="st2" d="M531.2,75.3l28.9-58.7h3.3l29.8,58.7h-13.7L574.7,65h-25.8L544,75.3L531.2,75.3z M553.4,55.3h16.7L561.6,37 L553.4,55.3z"></path> <path class="st2" d="M584.8,27.6v-11H634v11h-18.6v47.7h-12.2V27.6H584.8z"></path> <path class="st2" d="M641,75.3V16.6h12.5v58.7H641z"></path> <path class="st2" d="M673,24.3c3.6-3.7,8.1-6.5,13.1-8.2c5-1.5,10.3-1.8,15.5-0.9c5.2,1,10,3.3,14,6.7c4,3.4,7.1,7.7,9.1,12.5 c1.5,3.8,2.2,7.8,2.1,11.9c0.2,4.2-0.5,8.3-2.1,12.2c-2.3,5.8-6.3,10.7-11.6,14c-5.2,3.4-11.4,5-17.6,4.6 c-8.3,0.3-16.4-2.8-22.5-8.5c-2.8-3-5.1-6.5-6.7-10.3c-1.5-3.9-2.2-8-2.2-12.2c-0.1-4.1,0.7-8.1,2.1-11.9 C667.9,30.4,670.2,27.1,673,24.3z M677.5,46.2c-0.1,2.5,0.3,5,1.2,7.3c0.8,2.4,2.2,4.6,4,6.4c1.7,1.8,3.8,3.1,6.1,4 c4.5,1.6,9.5,1.6,14,0c2.3-0.9,4.3-2.3,6.1-4c1.8-1.8,3.2-4,4-6.4c0.8-2.3,1.3-4.8,1.2-7.3c0-2.6-0.4-5.2-1.2-7.6 c-0.8-2.4-2.2-4.6-4-6.4c-3.4-3.3-8-5.2-12.8-5.2c-4.8,0-9.4,1.8-12.8,5.2c-1.8,1.8-3.1,4-4,6.4 C678.1,40.9,677.4,43.5,677.5,46.2z"></path> <path class="st2" d="M737.5,75.3V16.6h4l35.9,35v-35h11.9v58.7h-4.3l-35.6-35v35H737.5z"></path> <g class="st3"> <path class="st2" d="M167.3,120.3v-16.5c2.3-0.2,5.1-0.2,7.6-0.2c3.5,0,6.5,0.7,6.5,4c0,1.9-0.9,3.2-2.7,4.1 c2.3,0.7,3.4,2.1,3.4,4.1c0,2.6-1.9,4.7-7.6,4.7C173.2,120.5,169.8,120.5,167.3,120.3z M174.8,110.7c2.2,0,3.2-1,3.2-2.3 c0-1.3-0.8-2.1-3.5-2.1h-3.9v4.5H174.8z M175.2,117.7c2.3,0,3.4-0.9,3.4-2.3c0-1.4-1-2.2-3.5-2.2h-4.5v4.6H175.2z"></path> <path class="st2" d="M198.2,106.8c-1.1-0.4-2.6-0.7-4-0.7c-3.7,0-5.7,2-5.7,5.8s2.3,5.9,5.6,5.9c1.5,0,3.1-0.3,4.3-0.8v2.9 c-1.6,0.7-3.4,0.9-4.7,0.9c-5,0-8.7-3.2-8.7-8.7c0-5.4,3.4-8.9,8.9-8.9c1.2,0,3,0.2,4.4,0.7V106.8z"></path> <path class="st2" d="M216.2,119.8c-1.5,0.7-3.9,1.1-5.8,1.1c-6.4,0-9.2-3.9-9.2-8.8c0-5.6,4.1-8.7,8.5-8.7 c5.6,0,7.9,3.6,7.9,7.9c0,0.5-0.1,1.7-0.1,2.4h-12.7c0.5,3.4,3.5,4.4,6.3,4.4c1.6,0,3.6-0.3,5.2-1V119.8z M214.1,110.9 c0-3.2-1.9-4.9-4.5-4.9c-3,0-4.9,1.8-5,4.9H214.1z"></path> </g> <g class="st3"> <path class="st2" d="M230,112.1c0-5,3.3-8.9,8.7-8.9c5.9,0.1,8.7,4.1,8.7,8.7c0,5-3.3,8.9-8.7,8.9 C232.8,120.8,230,116.7,230,112.1z M243.9,112.2c0-3.1-1.5-6.1-5.2-6.1c-4,0-5.2,3.1-5.2,5.8c0,3.1,1.5,6.1,5.2,6.1 C242.7,118,243.9,114.9,243.9,112.2z"></path> </g> <g class="st3"> <path class="st2" d="M253.7,108.6c2.1-2.4,4.9-3,7.2-3c4,0,6.9,2.8,6.9,7c0,4.5-3.3,8.2-8.2,8.2c-6.1,0-9-3.9-9-9.4 c0-8.5,4.2-11.7,15.6-13.7v3.2C261.2,102,254.7,102.4,253.7,108.6z M253.8,111.9c0.2,3.2,1.7,5.9,5.5,5.9c3.5,0,5.2-2.3,5.2-5.1 c0-3-1.8-4.2-4.6-4.2C257.8,108.6,255.2,109.7,253.8,111.9z"></path> <path class="st2" d="M292.7,120.3l-0.4-2.6c-1.7,2.2-3.9,2.9-6.4,2.9c-2.9,0-6-1.7-6-5.3c0-4.1,3.2-5.5,6.8-5.5 c1.3,0,3.3,0.4,4.9,1v-1.5c0-2.7-2.6-3.1-4.7-3.1c-1.8,0-3.6,0.3-5.2,1.1v-3c1.7-0.6,3.7-1,5.6-1c4.1,0,7.7,1.2,7.7,6.6v10.4 H292.7z M291.6,113.6c-1.3-0.8-2.9-1.3-4.5-1.3c-2.2,0-3.7,0.7-3.7,2.6c0,1.8,1,3.1,3.5,3.1c1.8,0,3.6-1.2,4.7-3.1V113.6z"></path> <path class="st2" d="M314.4,120.3H311v-6.8h-8.2v6.8h-3.4v-16.4h3.4v6.8h8.2v-6.8h3.4V120.3z"></path> <path class="st2" d="M330.7,120.3l-0.4-2.6c-1.7,2.2-3.9,2.9-6.4,2.9c-2.9,0-6-1.7-6-5.3c0-4.1,3.2-5.5,6.8-5.5 c1.3,0,3.3,0.4,4.9,1v-1.5c0-2.7-2.6-3.1-4.7-3.1c-1.8,0-3.6,0.3-5.2,1.1v-3c1.7-0.6,3.7-1,5.6-1c4.1,0,7.7,1.2,7.7,6.6v10.4 H330.7z M329.6,113.6c-1.3-0.8-2.9-1.3-4.5-1.3c-2.2,0-3.7,0.7-3.7,2.6c0,1.8,1,3.1,3.5,3.1c1.8,0,3.6-1.2,4.7-3.1V113.6z"></path> <path class="st2" d="M352.4,103.8v16.4h-3.3v-13.6h-6.3c0,11.8-1.7,13.8-5.5,13.8c-0.4,0-1.1,0-1.7-0.1l0.3-2.8 c0.3,0.1,0.5,0.1,0.7,0.1c2.6,0,3.1-2.8,3.3-13.8H352.4z"></path> <path class="st2" d="M356.8,103.8h3.4v10.5l10.6-10.5h1.2v16.4h-3.4v-10.5L358,120.3h-1.2V103.8z"></path> <path class="st2" d="M389.2,106.6h-5.3v13.6h-3.4v-13.6h-5.3v-2.8h14.1V106.6z"></path> <path class="st2" d="M392.2,103.8h3.4v10.5l10.6-10.5h1.2v16.4h-3.4v-10.5l-10.6,10.5h-1.2V103.8z"></path> <path class="st2" d="M411.9,103.8h3.4v6.8h2.6l5-6.8h4.1l-6.1,7.9l6.7,8.5h-4.3l-5.2-6.8h-2.8v6.8h-3.4V103.8z"></path> <path class="st2" d="M444,119.8c-1.5,0.7-3.9,1.1-5.8,1.1c-6.4,0-9.2-3.9-9.2-8.8c0-5.6,4.1-8.7,8.5-8.7c5.6,0,7.9,3.6,7.9,7.9 c0,0.5-0.1,1.7-0.1,2.4h-12.7c0.5,3.4,3.5,4.4,6.3,4.4c1.6,0,3.6-0.3,5.2-1V119.8z M441.9,110.9c0-3.2-1.9-4.9-4.5-4.9 c-3,0-4.9,1.8-5,4.9H441.9z"></path> <path class="st2" d="M447.6,124.8l2.4-8.6h3.7l-3.8,8.6H447.6z"></path> <path class="st2" d="M477.7,103.3c6.1,0.5,9.6,4,9.6,8.7c0,4.7-3.5,8.6-9.6,8.8v5.7h-3.2v-5.7c-6.1-0.2-9.6-4.1-9.6-8.8 c0-4.8,3.5-8.3,9.6-8.7v-5.3h3.2V103.3z M474.5,106.1c-4.1,0.2-6.3,2.7-6.3,5.9c0,3.3,2.2,5.8,6.3,6V106.1z M477.7,118 c4.1-0.2,6.3-2.7,6.3-6c0-3.2-2.1-5.7-6.3-5.9V118z"></path> <path class="st2" d="M490.7,103.8h3.4v10.5l10.6-10.5h1.2v16.4h-3.4v-10.5l-10.6,10.5h-1.2V103.8z"></path> <path class="st2" d="M525.4,120.3h-3.4v-6.8h-8.2v6.8h-3.4v-16.4h3.4v6.8h8.2v-6.8h3.4V120.3z"></path> <path class="st2" d="M541.6,120.3l-0.4-2.6c-1.7,2.2-3.9,2.9-6.4,2.9c-2.9,0-6-1.7-6-5.3c0-4.1,3.2-5.5,6.8-5.5 c1.3,0,3.3,0.4,4.9,1v-1.5c0-2.7-2.6-3.1-4.7-3.1c-1.8,0-3.6,0.3-5.2,1.1v-3c1.7-0.6,3.7-1,5.6-1c4.1,0,7.7,1.2,7.7,6.6v10.4 H541.6z M540.5,113.6c-1.3-0.8-2.9-1.3-4.5-1.3c-2.2,0-3.7,0.7-3.7,2.6c0,1.8,1,3.1,3.5,3.1c1.8,0,3.6-1.2,4.7-3.1V113.6z"></path> <path class="st2" d="M563.3,120.3h-3.4v-6.8h-8.2v6.8h-3.4v-16.4h3.4v6.8h8.2v-6.8h3.4V120.3z"></path> </g> <g class="st3"> <path class="st2" d="M583,106.8c-1.1-0.4-2.6-0.7-4-0.7c-3.7,0-5.7,2-5.7,5.8s2.3,5.9,5.6,5.9c1.5,0,3.1-0.3,4.3-0.8v2.9 c-1.6,0.7-3.4,0.9-4.7,0.9c-5,0-8.7-3.2-8.7-8.7c0-5.4,3.4-8.9,8.9-8.9c1.2,0,3,0.2,4.4,0.7V106.8z"></path> </g> <g class="st3"> <path class="st2" d="M598.2,120.3l-0.4-2.6c-1.7,2.2-3.9,2.9-6.4,2.9c-2.9,0-6-1.7-6-5.3c0-4.1,3.2-5.5,6.8-5.5 c1.3,0,3.3,0.4,4.9,1v-1.5c0-2.7-2.6-3.1-4.7-3.1c-1.8,0-3.6,0.3-5.2,1.1v-3c1.7-0.6,3.7-1,5.6-1c4.1,0,7.7,1.2,7.7,6.6v10.4 H598.2z M597.1,113.6c-1.3-0.8-2.9-1.3-4.5-1.3c-2.2,0-3.7,0.7-3.7,2.6c0,1.8,1,3.1,3.5,3.1c1.8,0,3.6-1.2,4.7-3.1V113.6z"></path> <path class="st2" d="M619.4,120.3h-3.7l-4.2-5.9l-4,5.9h-4l6-8.2l-6.2-8.2h3.9l4.2,6.1l4.2-6.1h3.7l-6,8.1L619.4,120.3z"></path> <path class="st2" d="M632.1,103.8h3.4v10.5l10.6-10.5h1.2v16.4H644v-10.5l-10.6,10.5h-1.2V103.8z"></path> <path class="st2" d="M664.3,108.6c2.1-2.4,4.9-3,7.2-3c4,0,6.9,2.8,6.9,7c0,4.5-3.3,8.2-8.2,8.2c-6.1,0-9-3.9-9-9.4 c0-8.5,4.2-11.7,15.6-13.7v3.2C671.8,102,665.2,102.4,664.3,108.6z M664.3,111.9c0.2,3.2,1.7,5.9,5.5,5.9c3.5,0,5.2-2.3,5.2-5.1 c0-3-1.8-4.2-4.6-4.2C668.4,108.6,665.8,109.7,664.3,111.9z"></path> <path class="st2" d="M682.2,103.8h3.4v10.5l10.6-10.5h1.2v16.4H694v-10.5l-10.6,10.5h-1.2V103.8z"></path> <path class="st2" d="M701.9,104c1.5-0.5,4.7-0.7,6.3-0.7c3.7,0,6.2,1.4,6.2,4.3c0,1.8-0.9,3.3-2.9,4.2c2.2,0.5,3.3,2.2,3.3,4.2 c0,3.6-3.3,4.9-6.8,4.9c-1.8,0-4.8-0.2-6.3-0.8v-3c1.5,0.6,3.5,0.9,5.2,0.9c2.2,0,4.5-0.5,4.5-2.4c0-1.4-1-2.3-3.6-2.3h-4.1 v-2.4h4.1c2.3,0,3.1-1,3.1-2.3c0-1.9-2-2.3-4.1-2.3c-1.6,0-3.6,0.4-5,0.7V104z"></path> <path class="st2" d="M733.7,120.3h-3.4v-6.8h-8.2v6.8h-3.4v-16.4h3.4v6.8h8.2v-6.8h3.4V120.3z"></path> </g> <g class="st3"> <path class="st2" d="M751.3,119.8c-1.5,0.7-3.9,1.1-5.8,1.1c-6.4,0-9.2-3.9-9.2-8.8c0-5.6,4.1-8.7,8.5-8.7 c5.6,0,7.9,3.6,7.9,7.9c0,0.5-0.1,1.7-0.1,2.4h-12.7c0.5,3.4,3.5,4.4,6.3,4.4c1.6,0,3.6-0.3,5.2-1V119.8z M749.2,110.9 c0-3.2-1.9-4.9-4.5-4.9c-3,0-4.9,1.8-5,4.9H749.2z"></path> </g> <g class="st3"> <path class="st2" d="M768.5,106.8c-1.1-0.4-2.6-0.7-4-0.7c-3.7,0-5.7,2-5.7,5.8s2.3,5.9,5.6,5.9c1.5,0,3.1-0.3,4.3-0.8v2.9 c-1.6,0.7-3.4,0.9-4.7,0.9c-5,0-8.7-3.2-8.7-8.7c0-5.4,3.4-8.9,8.9-8.9c1.2,0,3,0.2,4.4,0.7V106.8z"></path> <path class="st2" d="M786.4,119.8c-1.5,0.7-3.9,1.1-5.8,1.1c-6.4,0-9.2-3.9-9.2-8.8c0-5.6,4.1-8.7,8.5-8.7 c5.6,0,7.9,3.6,7.9,7.9c0,0.5-0.1,1.7-0.1,2.4h-12.7c0.5,3.4,3.5,4.4,6.3,4.4c1.6,0,3.6-0.3,5.2-1V119.8z M784.4,110.9 c0-3.2-1.9-4.9-4.5-4.9c-3,0-4.9,1.8-5,4.9H784.4z"></path> </g> </g> </g> </g> </svg> 