<?xml version="1.0" encoding="UTF-8"?> <svg xmlns="http://www.w3.org/2000/svg" width="129" height="26" viewBox="0 0 129 26" fill="none"> <path d="M13.4772 3.20049L15.1434 8.52726C15.341 9.15911 15.9295 9.58667 16.5915 9.57938L22.1724 9.51794C22.6624 9.51255 22.8669 10.142 22.4673 10.4256L17.9162 13.6563C17.3763 14.0395 17.1515 14.7313 17.363 15.3587L19.1461 20.6475C19.3026 21.1118 18.7672 21.5008 18.3739 21.2085L13.895 17.8784C13.3637 17.4834 12.6363 17.4834 12.105 17.8784L7.62606 21.2085C7.23284 21.5008 6.69739 21.1118 6.85393 20.6475L8.63697 15.3587C8.84846 14.7313 8.62368 14.0395 8.08384 13.6563L3.53265 10.4256C3.13309 10.142 3.33762 9.51255 3.82758 9.51794L9.40851 9.57938C10.0705 9.58667 10.659 9.15911 10.8566 8.52726L12.5228 3.20049C12.6691 2.73285 13.3309 2.73284 13.4772 3.20049Z" fill="#8C0000" stroke="#8C0000"></path> <path d="M39.4772 3.20049L41.1434 8.52726C41.341 9.15911 41.9295 9.58667 42.5915 9.57938L48.1724 9.51794C48.6624 9.51255 48.8669 10.142 48.4673 10.4256L43.9162 13.6563C43.3763 14.0395 43.1515 14.7313 43.363 15.3587L45.1461 20.6475C45.3026 21.1118 44.7672 21.5008 44.3739 21.2085L39.895 17.8784C39.3637 17.4834 38.6363 17.4834 38.105 17.8784L33.6261 21.2085C33.2328 21.5008 32.6974 21.1118 32.8539 20.6475L34.637 15.3587C34.8485 14.7313 34.6237 14.0395 34.0838 13.6563L29.5327 10.4256C29.1331 10.142 29.3376 9.51255 29.8276 9.51794L35.4085 9.57938C36.0705 9.58667 36.659 9.15911 36.8566 8.52726L38.5228 3.20049C38.6691 2.73285 39.3309 2.73284 39.4772 3.20049Z" fill="#8C0000" stroke="#8C0000"></path> <path d="M64.9788 3.32801L66.5377 8.51107C66.7302 9.15113 67.323 9.5866 67.9913 9.57895L73.2963 9.51821C73.7816 9.51265 73.9894 10.1322 73.599 10.4204L69.2049 13.6644C68.6858 14.0476 68.4699 14.7199 68.6689 15.3337L70.3732 20.5914C70.5249 21.0592 69.9808 21.4419 69.5918 21.1411L65.4175 17.9134C64.8772 17.4956 64.1228 17.4956 63.5824 17.9134L59.4083 21.1411C59.0192 21.4419 58.4751 21.0592 58.6268 20.5914L60.3311 15.3337C60.5301 14.7199 60.3142 14.0476 59.7951 13.6644L55.401 10.4204C55.0106 10.1322 55.2184 9.51265 55.7037 9.51821L61.0087 9.57895C61.677 9.5866 62.2698 9.15113 62.4623 8.51107L64.0212 3.32801C64.1639 2.85335 64.8361 2.85335 64.9788 3.32801Z" fill="#8C0000" stroke="#8C0000"></path> <path d="M90.4772 3.20049L92.1434 8.52726C92.341 9.15911 92.9295 9.58667 93.5915 9.57938L99.1724 9.51794C99.6624 9.51255 99.8669 10.142 99.4673 10.4256L94.9162 13.6563C94.3763 14.0395 94.1515 14.7313 94.363 15.3587L96.1461 20.6475C96.3026 21.1118 95.7672 21.5008 95.3739 21.2085L90.895 17.8784C90.3637 17.4834 89.6363 17.4834 89.105 17.8784L84.6261 21.2085C84.2328 21.5008 83.6974 21.1118 83.8539 20.6475L85.637 15.3587C85.8485 14.7313 85.6237 14.0395 85.0838 13.6563L80.5327 10.4256C80.1331 10.142 80.3376 9.51255 80.8276 9.51794L86.4085 9.57938C87.0705 9.58667 87.659 9.15911 87.8566 8.52726L89.5228 3.20049C89.6691 2.73285 90.3309 2.73284 90.4772 3.20049Z" fill="#8C0000" stroke="#8C0000"></path> <path d="M116.477 3.20049L118.143 8.52726C118.341 9.15911 118.929 9.58667 119.591 9.57938L125.172 9.51794C125.662 9.51255 125.867 10.142 125.467 10.4256L120.916 13.6563C120.376 14.0395 120.152 14.7313 120.363 15.3587L122.146 20.6475C122.303 21.1118 121.767 21.5008 121.374 21.2085L116.895 17.8784C116.364 17.4834 115.636 17.4834 115.105 17.8784L110.626 21.2085C110.233 21.5008 109.697 21.1118 109.854 20.6475L111.637 15.3587C111.848 14.7313 111.624 14.0395 111.084 13.6563L106.533 10.4256C106.133 10.142 106.338 9.51255 106.828 9.51794L112.409 9.57938C113.071 9.58667 113.659 9.15911 113.857 8.52726L115.523 3.20049C115.669 2.73285 116.331 2.73284 116.477 3.20049Z" stroke="#8C0000"></path> <path d="M115.5 11L115.5 17.5847L110.627 21.2085C110.233 21.5008 109.698 21.1118 109.854 20.6475L111.637 15.3587C111.849 14.7313 111.624 14.0395 111.084 13.6563L106.533 10.4256C106.134 10.142 106.338 9.51255 106.828 9.51794L112.409 9.57938C113.071 9.58667 113.659 9.15911 113.857 8.52726L115.5 3.27338L115.5 11Z" fill="#8C0000" stroke="#8C0000"></path> </svg> 