<?xml version="1.0" encoding="UTF-8"?> <!-- Generator: Adobe Illustrator 24.0.2, SVG Export Plug-In . SVG Version: 6.00 Build 0) --> <svg xmlns="http://www.w3.org/2000/svg" xmlns:xlink="http://www.w3.org/1999/xlink" id="Layer_1" x="0px" y="0px" viewBox="0 0 73 57" style="enable-background:new 0 0 73 57;" xml:space="preserve"> <style type="text/css"> .st0{clip-path:url(#SVGID_2_);} .st1{fill-rule:evenodd;clip-rule:evenodd;fill:#DCDCDC;} .st2{fill:#FFFFFF;filter:url(#Adobe_OpacityMaskFilter);} .st3{mask:url(#mask0_499_84_1_);} .st4{fill:#FFFFFF;filter:url(#Adobe_OpacityMaskFilter_1_);} .st5{mask:url(#mask1_499_84_1_);} </style> <g> <defs> <rect id="SVGID_1_" y="0" width="73" height="57"></rect> </defs> <clipPath id="SVGID_2_"> <use xlink:href="#SVGID_1_" style="overflow:visible;"></use> </clipPath> <g class="st0"> <path class="st1" d="M25.2,11.7h1.7c0,0,0-5.4,0-7.7c-0.6,0.1-1.1,0.2-1.7,0.3C25.2,6.5,25.2,11.7,25.2,11.7z"></path> <path class="st1" d="M29.2,10.1h1.7c0,0,0-4.7,0-6.8c-0.6,0.1-1.1,0.2-1.7,0.2C29.2,5.6,29.2,10.1,29.2,10.1z"></path> <path class="st1" d="M37.1,6.9h1.7c0,0,0-2.5,0-3.9C38.2,3,37.6,3,37.1,3C37.1,4.4,37.1,6.9,37.1,6.9z"></path> <path class="st1" d="M17.3,14.8H19c0,0,0-6.3,0-8.9c-0.6,0.2-1.2,0.4-1.7,0.5C17.3,9,17.3,14.8,17.3,14.8z"></path> <path class="st1" d="M21.3,13.2h1.7c0,0,0-5.9,0-8.4c-0.6,0.1-1.1,0.3-1.7,0.4C21.3,7.7,21.3,13.2,21.3,13.2z"></path> <path class="st1" d="M33.1,8.5h1.7c0,0,0-3.7,0-5.5c-0.6,0-1.1,0.1-1.7,0.1C33.1,4.8,33.1,8.5,33.1,8.5z"></path> <path class="st1" d="M52.9,10.1h1.7c0,0,0-2.4,0-3.8c-0.5-0.2-1.1-0.3-1.7-0.5C52.9,7.3,52.9,10.1,52.9,10.1z"></path> <path class="st1" d="M49,8.5h1.7c0,0,0-2.1,0-3.4C50.1,5,49.5,4.8,49,4.7C49,6.1,49,8.5,49,8.5z"></path> <path class="st1" d="M45,6.9h1.7c0,0,0-1.6,0-2.7C46.1,4.1,45.6,4,45,3.8C45,5,45,6.9,45,6.9z"></path> <path class="st1" d="M41,5.3h1.7c0,0,0-1.1,0-1.9c-0.6-0.1-1.1-0.2-1.7-0.2C41,4.1,41,5.3,41,5.3z"></path> <path class="st1" d="M57,36.9v0.6c0,0-0.1,0.2-0.1,0.2c-0.8,1.3-2.5,3.9-5.2,6.9c-3.2,3.4-8.4,8-15.6,10.5c0,0-0.2,0.1-0.2,0.1 c0,0-0.2-0.1-0.2-0.1c-7.2-2.4-12.4-7-15.6-10.5c-2.7-2.9-4.4-5.5-5.2-6.9c0,0-0.1-0.1-0.1-0.2v-0.6H13V38l0,0 c0.5,0.9,2.4,4.1,5.7,7.7c3.5,3.8,9.3,8.8,17.2,11.3l0,0l0,0c7.9-2.5,13.7-7.5,17.2-11.3c3.3-3.6,5.2-6.8,5.7-7.7l0,0v-1.1H57z"></path> <path class="st1" d="M29.2,51c0.5,0.3,1.1,0.7,1.7,1V36.9h-1.7V51z M25.2,48.2c0.5,0.4,1.1,0.9,1.7,1.3V36.9h-1.7V48.2z M33.1,53.1c0.5,0.2,1.1,0.5,1.7,0.7V36.9h-1.7V53.1z M21.3,44.5c0.5,0.5,1.1,1.1,1.7,1.7v-9.3h-1.7V44.5z M37.1,53.8 c0.6-0.2,1.1-0.5,1.7-0.7V36.9h-1.7V53.8z M52.9,41.9c0.6-0.8,1.2-1.5,1.7-2.2v-2.8h-1.7V41.9z M41,52c0.6-0.3,1.1-0.6,1.7-1V36.9 H41V52z M17.4,39.9c0.4,0.6,0.9,1.3,1.5,2v-4.9h-1.5V39.9z M45,49.5c0.6-0.4,1.1-0.9,1.7-1.3V36.9H45V49.5z M49,46.2 c0.6-0.6,1.2-1.1,1.7-1.7v-7.6H49V46.2z M45,18.2h1.7V8.8H45V18.2z M41,18.2h1.7v-11H41V18.2z M17.4,18.2h1.5v-1.5h-1.5V18.2z M49,18.2h1.7v-7.9H49V18.2z M21.3,18.2h1.7v-3.1h-1.7V18.2z M52.9,18.2h1.7v-6.3h-1.7V18.2z M25.2,18.2h1.7v-4.7h-1.7V18.2z M29.2,18.2h1.7v-6.3h-1.7V18.2z M33.1,18.2h1.7v-7.9h-1.7V18.2z M37.1,18.2h1.7V8.8h-1.7V18.2z"></path> <path class="st1" d="M8.1,16.3c0,0.7,0,1.2,0,1.9c1.3,0,54.4,0,55.7,0c0-0.7,0-1.2,0-1.9C62.5,16.3,9.4,16.3,8.1,16.3z"></path> <path class="st1" d="M13.1,4.6L13.1,4.6L13,18h1.8c0,0,0-11.9,0-12.1c0.1,0,0.5-0.2,0.5-0.2C18.9,4.5,28,1.8,35.9,1.8 c7.9,0,17,2.7,20.6,3.9c0,0,0.4,0.1,0.5,0.2C57,6,57,18,57,18h1.8V4.6l-0.1,0C56.7,3.8,45.6,0,35.9,0C26.3,0,15.2,3.8,13.1,4.6z"></path> <path class="st1" d="M20.2,28.8c0,1.9,0,3.4,0.1,4.2c0.1,0.6,0.2,1,0.8,1.1c0.3,0,0.8,0.1,1.1,0.1c0.3,0,0.4,0.1,0.4,0.2 c0,0.1-0.1,0.2-0.5,0.2c-1.3,0-2.7-0.1-3.2-0.1c-0.6,0-1.9,0.1-2.7,0.1c-0.3,0-0.4,0-0.4-0.2c0-0.1,0.1-0.2,0.3-0.2 c0.3,0,0.6,0,0.8-0.1c0.4-0.1,0.5-0.5,0.6-1.1c0.1-0.8,0.1-2.3,0.1-4.2v-3.5c0-3,0-3.5,0-4.2c0-0.7-0.2-1-0.9-1.1 C16.4,20,16,20,15.8,20c-0.2,0-0.4,0-0.4-0.2c0-0.2,0.2-0.2,0.5-0.2c0.6,0,1.2,0,1.7,0c0.6,0,1,0,1.3,0c0.8,0,5.1,0,5.6,0 c0.4,0,0.7,0,0.9-0.1c0.1,0,0.2-0.1,0.3-0.1c0.1,0,0.1,0.1,0.1,0.2c0,0.1-0.1,0.4-0.2,0.9c0,0.2-0.1,1.4-0.1,1.6 c0,0.2-0.1,0.3-0.2,0.3c-0.2,0-0.2-0.1-0.2-0.3c0-0.2,0-0.5-0.1-0.7c-0.1-0.3-0.6-0.6-1.4-0.6l-3.3-0.1c-0.1,0-0.2,0.1-0.2,0.3 v4.9c0,0.1,0,0.2,0.1,0.2l2.7,0c0.4,0,0.7,0,1,0c0.4,0,0.7-0.1,0.9-0.4c0.1-0.1,0.1-0.2,0.3-0.2c0.1,0,0.1,0.1,0.1,0.2 c0,0.1-0.1,0.6-0.2,1.2c0,0.4-0.1,1.3-0.1,1.4c0,0.2,0,0.4-0.2,0.4c-0.1,0-0.2-0.1-0.2-0.3c0-0.1,0-0.4-0.1-0.6 c-0.1-0.3-0.4-0.6-1.1-0.7C23,27,20.7,27,20.4,27c-0.1,0-0.1,0-0.1,0.2V28.8z"></path> <path class="st1" d="M51.5,25.4c0-3,0-3.5,0-4.2c0-0.7-0.3-1-0.7-1.1C50.5,20,50.2,20,50,20c-0.2,0-0.3,0-0.3-0.2 c0-0.1,0.2-0.2,0.5-0.2c0.8,0,2.1,0.1,2.8,0.1c0.5,0,1.8-0.1,2.6-0.1c0.3,0,0.4,0,0.4,0.2c0,0.2-0.1,0.2-0.3,0.2 c-0.2,0-0.4,0-0.6,0.1c-0.6,0.1-0.7,0.4-0.8,1.1c0,0.6,0,1.2,0,4.2v3.5c0,1.9,0,3.5,0.1,4.3c0.1,0.5,0.2,0.9,0.9,1 c0.3,0,0.8,0.1,1.1,0.1c0.2,0,0.3,0.1,0.3,0.2c0,0.1-0.2,0.2-0.4,0.2c-1.4,0-2.7-0.1-3.3-0.1c-0.5,0-1.8,0.1-2.7,0.1 c-0.3,0-0.4-0.1-0.4-0.2c0-0.1,0.1-0.2,0.3-0.2c0.3,0,0.6,0,0.8-0.1c0.4-0.1,0.6-0.4,0.6-1c0.1-0.8,0.1-2.4,0.1-4.3V25.4z"></path> <path class="st1" d="M30.6,19.7c0.1-0.3,0.2-0.5,0.4-0.5c0.2,0,0.3,0.1,0.6,0.6l5.8,11.1l5.8-11.2c0.2-0.3,0.3-0.5,0.5-0.5 c0.2,0,0.3,0.2,0.4,0.6L46,32c0.2,1.2,0.4,1.8,1,2c0.6,0.2,1,0.2,1.3,0.2c0.2,0,0.3,0,0.3,0.1c0,0.2-0.3,0.2-0.6,0.2 c-0.5,0-3.5-0.1-4.3-0.1c-0.5,0-0.6-0.1-0.6-0.2c0-0.1,0.1-0.2,0.2-0.2c0.1,0,0.2-0.3,0.1-0.8l-1.3-8.6h-0.1l-4.6,8.9 c-0.5,0.9-0.6,1.1-0.8,1.1c-0.2,0-0.4-0.4-0.7-1c-0.5-0.9-2.2-3.9-2.4-4.5c-0.2-0.4-1.5-2.9-2.2-4.4h-0.1l-1.1,7.8 c0,0.4-0.1,0.6-0.1,0.9c0,0.4,0.3,0.5,0.6,0.6c0.4,0.1,0.7,0.1,0.9,0.1c0.2,0,0.3,0,0.3,0.1c0,0.2-0.2,0.2-0.5,0.2 c-0.9,0-1.9-0.1-2.2-0.1c-0.4,0-1.4,0.1-2.1,0.1c-0.2,0-0.4,0-0.4-0.2c0-0.1,0.1-0.1,0.3-0.1c0.2,0,0.3,0,0.6-0.1 c0.6-0.1,0.8-0.9,0.9-1.6L30.6,19.7z"></path> <path class="st1" d="M8.1,36.5c0,0.6,0,1,0,1.6c1.3,0,54.4,0,55.7,0c0-0.6,0-1,0-1.6C62.5,36.5,9.4,36.5,8.1,36.5z"></path> <defs> <filter id="Adobe_OpacityMaskFilter" filterUnits="userSpaceOnUse" x="5.5" y="22.3" width="60.8" height="8.6"> <feColorMatrix type="matrix" values="1 0 0 0 0 0 1 0 0 0 0 0 1 0 0 0 0 0 1 0"></feColorMatrix> </filter> </defs> <mask maskUnits="userSpaceOnUse" x="5.5" y="22.3" width="60.8" height="8.6" id="mask0_499_84_1_"> <path class="st2" d="M5.5,22.3h60.8v8.6H5.5V22.3z"></path> </mask> <g class="st3"> <path class="st1" d="M61.8,22.3l1.1,3.3h3.5l-2.8,2l1.1,3.3l-2.8-2l-2.8,2l1.1-3.3l-2.8-2h3.5L61.8,22.3z"></path> <path class="st1" d="M10.1,22.3l1.1,3.3h3.5l-2.8,2l1.1,3.3l-2.8-2l-2.8,2l1.1-3.3l-2.8-2H9L10.1,22.3z"></path> </g> <path class="st1" d="M25.2,11.7h1.7c0,0,0-5.4,0-7.7c-0.6,0.1-1.1,0.2-1.7,0.3C25.2,6.5,25.2,11.7,25.2,11.7z"></path> <path class="st1" d="M29.2,10.1h1.7c0,0,0-4.7,0-6.8c-0.6,0.1-1.1,0.2-1.7,0.2C29.2,5.6,29.2,10.1,29.2,10.1z"></path> <path class="st1" d="M37.1,6.9h1.7c0,0,0-2.5,0-3.9C38.2,3,37.6,3,37.1,3C37.1,4.4,37.1,6.9,37.1,6.9z"></path> <path class="st1" d="M17.3,14.8H19c0,0,0-6.3,0-8.9c-0.6,0.2-1.2,0.4-1.7,0.5C17.3,9,17.3,14.8,17.3,14.8z"></path> <path class="st1" d="M21.3,13.2h1.7c0,0,0-5.9,0-8.4c-0.6,0.1-1.1,0.3-1.7,0.4C21.3,7.7,21.3,13.2,21.3,13.2z"></path> <path class="st1" d="M33.1,8.5h1.7c0,0,0-3.7,0-5.5c-0.6,0-1.1,0.1-1.7,0.1C33.1,4.8,33.1,8.5,33.1,8.5z"></path> <path class="st1" d="M52.9,10.1h1.7c0,0,0-2.4,0-3.8c-0.5-0.2-1.1-0.3-1.7-0.5C52.9,7.3,52.9,10.1,52.9,10.1z"></path> <path class="st1" d="M49,8.5h1.7c0,0,0-2.1,0-3.4C50.1,5,49.5,4.8,49,4.7C49,6.1,49,8.5,49,8.5z"></path> <path class="st1" d="M45,6.9h1.7c0,0,0-1.6,0-2.7C46.1,4.1,45.6,4,45,3.8C45,5,45,6.9,45,6.9z"></path> <path class="st1" d="M41,5.3h1.7c0,0,0-1.1,0-1.9c-0.6-0.1-1.1-0.2-1.7-0.2C41,4.1,41,5.3,41,5.3z"></path> <path class="st1" d="M57,36.9v0.6c0,0-0.1,0.2-0.1,0.2c-0.8,1.3-2.5,3.9-5.2,6.9c-3.2,3.4-8.4,8-15.6,10.5c0,0-0.2,0.1-0.2,0.1 c0,0-0.2-0.1-0.2-0.1c-7.2-2.4-12.4-7-15.6-10.5c-2.7-2.9-4.4-5.5-5.2-6.9c0,0-0.1-0.1-0.1-0.2v-0.6H13V38l0,0 c0.5,0.9,2.4,4.1,5.7,7.7c3.5,3.8,9.3,8.8,17.2,11.3l0,0l0,0c7.9-2.5,13.7-7.5,17.2-11.3c3.3-3.6,5.2-6.8,5.7-7.7l0,0v-1.1H57z"></path> <path class="st1" d="M29.2,51c0.5,0.3,1.1,0.7,1.7,1V36.9h-1.7V51z M25.2,48.2c0.5,0.4,1.1,0.9,1.7,1.3V36.9h-1.7V48.2z M33.1,53.1c0.5,0.2,1.1,0.5,1.7,0.7V36.9h-1.7V53.1z M21.3,44.5c0.5,0.5,1.1,1.1,1.7,1.7v-9.3h-1.7V44.5z M37.1,53.8 c0.6-0.2,1.1-0.5,1.7-0.7V36.9h-1.7V53.8z M52.9,41.9c0.6-0.8,1.2-1.5,1.7-2.2v-2.8h-1.7V41.9z M41,52c0.6-0.3,1.1-0.6,1.7-1V36.9 H41V52z M17.4,39.9c0.4,0.6,0.9,1.3,1.5,2v-4.9h-1.5V39.9z M45,49.5c0.6-0.4,1.1-0.9,1.7-1.3V36.9H45V49.5z M49,46.2 c0.6-0.6,1.2-1.1,1.7-1.7v-7.6H49V46.2z M45,18.2h1.7V8.8H45V18.2z M41,18.2h1.7v-11H41V18.2z M17.4,18.2h1.5v-1.5h-1.5V18.2z M49,18.2h1.7v-7.9H49V18.2z M21.3,18.2h1.7v-3.1h-1.7V18.2z M52.9,18.2h1.7v-6.3h-1.7V18.2z M25.2,18.2h1.7v-4.7h-1.7V18.2z M29.2,18.2h1.7v-6.3h-1.7V18.2z M33.1,18.2h1.7v-7.9h-1.7V18.2z M37.1,18.2h1.7V8.8h-1.7V18.2z"></path> <path class="st1" d="M8.1,16.3c0,0.7,0,1.2,0,1.9c1.3,0,54.4,0,55.7,0c0-0.7,0-1.2,0-1.9C62.5,16.3,9.4,16.3,8.1,16.3z"></path> <path class="st1" d="M13.1,4.6L13.1,4.6L13,18h1.8c0,0,0-11.9,0-12.1c0.1,0,0.5-0.2,0.5-0.2C18.9,4.5,28,1.8,35.9,1.8 c7.9,0,17,2.7,20.6,3.9c0,0,0.4,0.1,0.5,0.2C57,6,57,18,57,18h1.8V4.6l-0.1,0C56.7,3.8,45.6,0,35.9,0C26.3,0,15.2,3.8,13.1,4.6z"></path> <path class="st1" d="M20.2,28.8c0,1.9,0,3.4,0.1,4.2c0.1,0.6,0.2,1,0.8,1.1c0.3,0,0.8,0.1,1.1,0.1c0.3,0,0.4,0.1,0.4,0.2 c0,0.1-0.1,0.2-0.5,0.2c-1.3,0-2.7-0.1-3.2-0.1c-0.6,0-1.9,0.1-2.7,0.1c-0.3,0-0.4,0-0.4-0.2c0-0.1,0.1-0.2,0.3-0.2 c0.3,0,0.6,0,0.8-0.1c0.4-0.1,0.5-0.5,0.6-1.1c0.1-0.8,0.1-2.3,0.1-4.2v-3.5c0-3,0-3.5,0-4.2c0-0.7-0.2-1-0.9-1.1 C16.4,20,16,20,15.8,20c-0.2,0-0.4,0-0.4-0.2c0-0.2,0.2-0.2,0.5-0.2c0.6,0,1.2,0,1.7,0c0.6,0,1,0,1.3,0c0.8,0,5.1,0,5.6,0 c0.4,0,0.7,0,0.9-0.1c0.1,0,0.2-0.1,0.3-0.1c0.1,0,0.1,0.1,0.1,0.2c0,0.1-0.1,0.4-0.2,0.9c0,0.2-0.1,1.4-0.1,1.6 c0,0.2-0.1,0.3-0.2,0.3c-0.2,0-0.2-0.1-0.2-0.3c0-0.2,0-0.5-0.1-0.7c-0.1-0.3-0.6-0.6-1.4-0.6l-3.3-0.1c-0.1,0-0.2,0.1-0.2,0.3 v4.9c0,0.1,0,0.2,0.1,0.2l2.7,0c0.4,0,0.7,0,1,0c0.4,0,0.7-0.1,0.9-0.4c0.1-0.1,0.1-0.2,0.3-0.2c0.1,0,0.1,0.1,0.1,0.2 c0,0.1-0.1,0.6-0.2,1.2c0,0.4-0.1,1.3-0.1,1.4c0,0.2,0,0.4-0.2,0.4c-0.1,0-0.2-0.1-0.2-0.3c0-0.1,0-0.4-0.1-0.6 c-0.1-0.3-0.4-0.6-1.1-0.7C23,27,20.7,27,20.4,27c-0.1,0-0.1,0-0.1,0.2V28.8z"></path> <path class="st1" d="M51.5,25.4c0-3,0-3.5,0-4.2c0-0.7-0.3-1-0.7-1.1C50.5,20,50.2,20,50,20c-0.2,0-0.3,0-0.3-0.2 c0-0.1,0.2-0.2,0.5-0.2c0.8,0,2.1,0.1,2.8,0.1c0.5,0,1.8-0.1,2.6-0.1c0.3,0,0.4,0,0.4,0.2c0,0.2-0.1,0.2-0.3,0.2 c-0.2,0-0.4,0-0.6,0.1c-0.6,0.1-0.7,0.4-0.8,1.1c0,0.6,0,1.2,0,4.2v3.5c0,1.9,0,3.5,0.1,4.3c0.1,0.5,0.2,0.9,0.9,1 c0.3,0,0.8,0.1,1.1,0.1c0.2,0,0.3,0.1,0.3,0.2c0,0.1-0.2,0.2-0.4,0.2c-1.4,0-2.7-0.1-3.3-0.1c-0.5,0-1.8,0.1-2.7,0.1 c-0.3,0-0.4-0.1-0.4-0.2c0-0.1,0.1-0.2,0.3-0.2c0.3,0,0.6,0,0.8-0.1c0.4-0.1,0.6-0.4,0.6-1c0.1-0.8,0.1-2.4,0.1-4.3V25.4z"></path> <path class="st1" d="M30.6,19.7c0.1-0.3,0.2-0.5,0.4-0.5c0.2,0,0.3,0.1,0.6,0.6l5.8,11.1l5.8-11.2c0.2-0.3,0.3-0.5,0.5-0.5 c0.2,0,0.3,0.2,0.4,0.6L46,32c0.2,1.2,0.4,1.8,1,2c0.6,0.2,1,0.2,1.3,0.2c0.2,0,0.3,0,0.3,0.1c0,0.2-0.3,0.2-0.6,0.2 c-0.5,0-3.5-0.1-4.3-0.1c-0.5,0-0.6-0.1-0.6-0.2c0-0.1,0.1-0.2,0.2-0.2c0.1,0,0.2-0.3,0.1-0.8l-1.3-8.6h-0.1l-4.6,8.9 c-0.5,0.9-0.6,1.1-0.8,1.1c-0.2,0-0.4-0.4-0.7-1c-0.5-0.9-2.2-3.9-2.4-4.5c-0.2-0.4-1.5-2.9-2.2-4.4h-0.1l-1.1,7.8 c0,0.4-0.1,0.6-0.1,0.9c0,0.4,0.3,0.5,0.6,0.6c0.4,0.1,0.7,0.1,0.9,0.1c0.2,0,0.3,0,0.3,0.1c0,0.2-0.2,0.2-0.5,0.2 c-0.9,0-1.9-0.1-2.2-0.1c-0.4,0-1.4,0.1-2.1,0.1c-0.2,0-0.4,0-0.4-0.2c0-0.1,0.1-0.1,0.3-0.1c0.2,0,0.3,0,0.6-0.1 c0.6-0.1,0.8-0.9,0.9-1.6L30.6,19.7z"></path> <path class="st1" d="M8.1,36.5c0,0.6,0,1,0,1.6c1.3,0,54.4,0,55.7,0c0-0.6,0-1,0-1.6C62.5,36.5,9.4,36.5,8.1,36.5z"></path> <defs> <filter id="Adobe_OpacityMaskFilter_1_" filterUnits="userSpaceOnUse" x="5.5" y="22.3" width="60.8" height="8.6"> <feColorMatrix type="matrix" values="1 0 0 0 0 0 1 0 0 0 0 0 1 0 0 0 0 0 1 0"></feColorMatrix> </filter> </defs> <mask maskUnits="userSpaceOnUse" x="5.5" y="22.3" width="60.8" height="8.6" id="mask1_499_84_1_"> <path class="st4" d="M5.5,22.3h60.8v8.6H5.5V22.3z"></path> </mask> <g class="st5"> <path class="st1" d="M61.8,22.3l1.1,3.3h3.5l-2.8,2l1.1,3.3l-2.8-2l-2.8,2l1.1-3.3l-2.8-2h3.5L61.8,22.3z"></path> <path class="st1" d="M10.1,22.3l1.1,3.3h3.5l-2.8,2l1.1,3.3l-2.8-2l-2.8,2l1.1-3.3l-2.8-2H9L10.1,22.3z"></path> </g> </g> </g> </svg> 